<mxfile host="app.diagrams.net" modified="2021-01-08T12:16:11.207Z" agent="5.0 (X11; Linux x86_64) AppleWebKit/537.36 (KHTML, like Gecko) Chrome/87.0.4280.88 Safari/537.36" etag="VI-AQe44J5efEk5hVHyO" version="14.1.8" type="github">
  <diagram id="T8kElz6zl9y2UDNuJRaN" name="Page-1">
    <mxGraphModel dx="744" dy="430" grid="1" gridSize="10" guides="1" tooltips="1" connect="1" arrows="1" fold="1" page="1" pageScale="1" pageWidth="850" pageHeight="1100" math="0" shadow="0">
      <root>
        <mxCell id="0" />
        <mxCell id="1" parent="0" />
        <mxCell id="hqb7r71HThTkE5SXsh7w-2" value="START&lt;br&gt;" style="rounded=1;whiteSpace=wrap;html=1;" vertex="1" parent="1">
          <mxGeometry x="370" y="40" width="114" height="50" as="geometry" />
        </mxCell>
        <mxCell id="hqb7r71HThTkE5SXsh7w-3" value="App Info" style="rounded=0;whiteSpace=wrap;html=1;" vertex="1" parent="1">
          <mxGeometry x="46" y="210" width="100" height="60" as="geometry" />
        </mxCell>
        <mxCell id="hqb7r71HThTkE5SXsh7w-8" value="Display Mainactivity" style="rounded=0;whiteSpace=wrap;html=1;" vertex="1" parent="1">
          <mxGeometry x="372" y="110" width="115" height="56" as="geometry" />
        </mxCell>
        <mxCell id="hqb7r71HThTkE5SXsh7w-11" value="IF Clicked" style="rhombus;whiteSpace=wrap;html=1;" vertex="1" parent="1">
          <mxGeometry x="28" y="340" width="120" height="120" as="geometry" />
        </mxCell>
        <mxCell id="hqb7r71HThTkE5SXsh7w-15" value="Start Service" style="rounded=0;whiteSpace=wrap;html=1;" vertex="1" parent="1">
          <mxGeometry x="185" y="210" width="100" height="60" as="geometry" />
        </mxCell>
        <mxCell id="hqb7r71HThTkE5SXsh7w-16" value="Stop Service" style="rounded=0;whiteSpace=wrap;html=1;" vertex="1" parent="1">
          <mxGeometry x="320" y="210" width="100" height="60" as="geometry" />
        </mxCell>
        <mxCell id="hqb7r71HThTkE5SXsh7w-17" value="Map" style="rounded=0;whiteSpace=wrap;html=1;" vertex="1" parent="1">
          <mxGeometry x="454" y="210" width="100" height="60" as="geometry" />
        </mxCell>
        <mxCell id="hqb7r71HThTkE5SXsh7w-18" value="Call" style="rounded=0;whiteSpace=wrap;html=1;" vertex="1" parent="1">
          <mxGeometry x="580" y="210" width="100" height="60" as="geometry" />
        </mxCell>
        <mxCell id="hqb7r71HThTkE5SXsh7w-23" value="IF Clicked" style="rhombus;whiteSpace=wrap;html=1;" vertex="1" parent="1">
          <mxGeometry x="181" y="340" width="109" height="120" as="geometry" />
        </mxCell>
        <mxCell id="hqb7r71HThTkE5SXsh7w-24" value="IF Clicked" style="rhombus;whiteSpace=wrap;html=1;" vertex="1" parent="1">
          <mxGeometry x="316" y="340" width="120" height="120" as="geometry" />
        </mxCell>
        <mxCell id="hqb7r71HThTkE5SXsh7w-25" value="IF Clicked" style="rhombus;whiteSpace=wrap;html=1;" vertex="1" parent="1">
          <mxGeometry x="454" y="340" width="110" height="120" as="geometry" />
        </mxCell>
        <mxCell id="hqb7r71HThTkE5SXsh7w-26" value="IF Clicked" style="rhombus;whiteSpace=wrap;html=1;" vertex="1" parent="1">
          <mxGeometry x="585" y="340" width="110" height="120" as="geometry" />
        </mxCell>
        <mxCell id="hqb7r71HThTkE5SXsh7w-27" value="Display App info" style="rounded=0;whiteSpace=wrap;html=1;" vertex="1" parent="1">
          <mxGeometry x="40" y="520" width="100" height="60" as="geometry" />
        </mxCell>
        <mxCell id="hqb7r71HThTkE5SXsh7w-28" value="Invoke API GET request" style="rounded=0;whiteSpace=wrap;html=1;" vertex="1" parent="1">
          <mxGeometry x="180" y="520" width="110" height="60" as="geometry" />
        </mxCell>
        <mxCell id="hqb7r71HThTkE5SXsh7w-29" value="GET drowsiness&amp;nbsp;&lt;br&gt;status" style="rounded=0;whiteSpace=wrap;html=1;" vertex="1" parent="1">
          <mxGeometry x="175" y="640" width="120" height="60" as="geometry" />
        </mxCell>
        <mxCell id="hqb7r71HThTkE5SXsh7w-31" value="" style="rhombus;whiteSpace=wrap;html=1;" vertex="1" parent="1">
          <mxGeometry x="171" y="750" width="130" height="120" as="geometry" />
        </mxCell>
        <mxCell id="hqb7r71HThTkE5SXsh7w-32" value="Turn on Alarm &amp;amp;&lt;br&gt;Notifications" style="rounded=0;whiteSpace=wrap;html=1;" vertex="1" parent="1">
          <mxGeometry x="180" y="890" width="120" height="60" as="geometry" />
        </mxCell>
        <mxCell id="hqb7r71HThTkE5SXsh7w-33" value="IF drowsiness Status&lt;br&gt;" style="text;html=1;strokeColor=none;fillColor=none;align=center;verticalAlign=middle;whiteSpace=wrap;rounded=0;" vertex="1" parent="1">
          <mxGeometry x="185" y="780" width="95" height="60" as="geometry" />
        </mxCell>
        <mxCell id="hqb7r71HThTkE5SXsh7w-34" value="Stop Alarm &amp;amp; Notifications" style="rounded=0;whiteSpace=wrap;html=1;" vertex="1" parent="1">
          <mxGeometry x="375" y="780" width="120" height="60" as="geometry" />
        </mxCell>
        <mxCell id="hqb7r71HThTkE5SXsh7w-37" value="" style="endArrow=classic;html=1;exitX=0.5;exitY=1;exitDx=0;exitDy=0;entryX=0.558;entryY=0.017;entryDx=0;entryDy=0;entryPerimeter=0;" edge="1" parent="1" source="hqb7r71HThTkE5SXsh7w-23" target="hqb7r71HThTkE5SXsh7w-28">
          <mxGeometry width="50" height="50" relative="1" as="geometry">
            <mxPoint x="390" y="520" as="sourcePoint" />
            <mxPoint x="440" y="470" as="targetPoint" />
          </mxGeometry>
        </mxCell>
        <mxCell id="hqb7r71HThTkE5SXsh7w-39" value="" style="endArrow=classic;html=1;exitX=0.5;exitY=1;exitDx=0;exitDy=0;" edge="1" parent="1" source="hqb7r71HThTkE5SXsh7w-28" target="hqb7r71HThTkE5SXsh7w-29">
          <mxGeometry width="50" height="50" relative="1" as="geometry">
            <mxPoint x="260" y="590" as="sourcePoint" />
            <mxPoint x="310" y="540" as="targetPoint" />
          </mxGeometry>
        </mxCell>
        <mxCell id="hqb7r71HThTkE5SXsh7w-40" value="" style="endArrow=classic;html=1;exitX=0.5;exitY=1;exitDx=0;exitDy=0;entryX=0.5;entryY=0;entryDx=0;entryDy=0;" edge="1" parent="1" source="hqb7r71HThTkE5SXsh7w-29" target="hqb7r71HThTkE5SXsh7w-31">
          <mxGeometry width="50" height="50" relative="1" as="geometry">
            <mxPoint x="360" y="690" as="sourcePoint" />
            <mxPoint x="410" y="640" as="targetPoint" />
          </mxGeometry>
        </mxCell>
        <mxCell id="hqb7r71HThTkE5SXsh7w-41" value="" style="endArrow=classic;html=1;exitX=1;exitY=0.5;exitDx=0;exitDy=0;entryX=0;entryY=0.5;entryDx=0;entryDy=0;" edge="1" parent="1" source="hqb7r71HThTkE5SXsh7w-31" target="hqb7r71HThTkE5SXsh7w-34">
          <mxGeometry width="50" height="50" relative="1" as="geometry">
            <mxPoint x="330" y="770" as="sourcePoint" />
            <mxPoint x="370" y="810" as="targetPoint" />
          </mxGeometry>
        </mxCell>
        <mxCell id="hqb7r71HThTkE5SXsh7w-42" value="" style="endArrow=classic;html=1;exitX=0.5;exitY=1;exitDx=0;exitDy=0;" edge="1" parent="1" source="hqb7r71HThTkE5SXsh7w-31" target="hqb7r71HThTkE5SXsh7w-32">
          <mxGeometry width="50" height="50" relative="1" as="geometry">
            <mxPoint x="280" y="820" as="sourcePoint" />
            <mxPoint x="330" y="770" as="targetPoint" />
          </mxGeometry>
        </mxCell>
        <mxCell id="hqb7r71HThTkE5SXsh7w-43" value="" style="endArrow=classic;html=1;exitX=0.5;exitY=1;exitDx=0;exitDy=0;entryX=0.5;entryY=0;entryDx=0;entryDy=0;" edge="1" parent="1" source="hqb7r71HThTkE5SXsh7w-11" target="hqb7r71HThTkE5SXsh7w-27">
          <mxGeometry width="50" height="50" relative="1" as="geometry">
            <mxPoint x="140" y="390" as="sourcePoint" />
            <mxPoint x="190" y="340" as="targetPoint" />
          </mxGeometry>
        </mxCell>
        <mxCell id="hqb7r71HThTkE5SXsh7w-44" value="Stop API GET request" style="rounded=0;whiteSpace=wrap;html=1;" vertex="1" parent="1">
          <mxGeometry x="318" y="520" width="117" height="60" as="geometry" />
        </mxCell>
        <mxCell id="hqb7r71HThTkE5SXsh7w-45" value="" style="endArrow=classic;html=1;exitX=0.5;exitY=1;exitDx=0;exitDy=0;entryX=0.5;entryY=0;entryDx=0;entryDy=0;" edge="1" parent="1" source="hqb7r71HThTkE5SXsh7w-24" target="hqb7r71HThTkE5SXsh7w-44">
          <mxGeometry width="50" height="50" relative="1" as="geometry">
            <mxPoint x="480" y="440" as="sourcePoint" />
            <mxPoint x="530" y="390" as="targetPoint" />
          </mxGeometry>
        </mxCell>
        <mxCell id="hqb7r71HThTkE5SXsh7w-46" value="FALSE" style="text;html=1;align=center;verticalAlign=middle;resizable=0;points=[];autosize=1;" vertex="1" parent="1">
          <mxGeometry x="301" y="780" width="50" height="20" as="geometry" />
        </mxCell>
        <mxCell id="hqb7r71HThTkE5SXsh7w-47" value="TRUE" style="text;html=1;align=center;verticalAlign=middle;resizable=0;points=[];autosize=1;" vertex="1" parent="1">
          <mxGeometry x="265" y="850" width="50" height="20" as="geometry" />
        </mxCell>
        <mxCell id="hqb7r71HThTkE5SXsh7w-48" value="Display Map &amp;amp; Location Service" style="rounded=0;whiteSpace=wrap;html=1;" vertex="1" parent="1">
          <mxGeometry x="455" y="520" width="111" height="60" as="geometry" />
        </mxCell>
        <mxCell id="hqb7r71HThTkE5SXsh7w-49" value="Open phone call service" style="rounded=0;whiteSpace=wrap;html=1;" vertex="1" parent="1">
          <mxGeometry x="599" y="520" width="101" height="60" as="geometry" />
        </mxCell>
        <mxCell id="hqb7r71HThTkE5SXsh7w-52" value="Quit" style="rounded=0;whiteSpace=wrap;html=1;" vertex="1" parent="1">
          <mxGeometry x="713" y="210" width="100" height="60" as="geometry" />
        </mxCell>
        <mxCell id="hqb7r71HThTkE5SXsh7w-54" value="IF Clicked" style="rhombus;whiteSpace=wrap;html=1;" vertex="1" parent="1">
          <mxGeometry x="710" y="340" width="110" height="120" as="geometry" />
        </mxCell>
        <mxCell id="hqb7r71HThTkE5SXsh7w-55" value="Want to close&lt;br&gt;&amp;nbsp;App ?" style="rhombus;whiteSpace=wrap;html=1;" vertex="1" parent="1">
          <mxGeometry x="710" y="590" width="110" height="120" as="geometry" />
        </mxCell>
        <mxCell id="hqb7r71HThTkE5SXsh7w-58" value="Quit App" style="rounded=1;whiteSpace=wrap;html=1;" vertex="1" parent="1">
          <mxGeometry x="698" y="760" width="120" height="60" as="geometry" />
        </mxCell>
        <mxCell id="hqb7r71HThTkE5SXsh7w-69" value="" style="endArrow=classic;html=1;entryX=0;entryY=0.5;entryDx=0;entryDy=0;" edge="1" parent="1" target="hqb7r71HThTkE5SXsh7w-8">
          <mxGeometry width="50" height="50" relative="1" as="geometry">
            <mxPoint x="300" y="320" as="sourcePoint" />
            <mxPoint x="304" y="160" as="targetPoint" />
            <Array as="points">
              <mxPoint x="300" y="138" />
            </Array>
          </mxGeometry>
        </mxCell>
        <mxCell id="hqb7r71HThTkE5SXsh7w-70" value="" style="endArrow=none;html=1;" edge="1" parent="1">
          <mxGeometry width="50" height="50" relative="1" as="geometry">
            <mxPoint x="150" y="320" as="sourcePoint" />
            <mxPoint x="820" y="320" as="targetPoint" />
          </mxGeometry>
        </mxCell>
        <mxCell id="hqb7r71HThTkE5SXsh7w-71" value="" style="endArrow=classic;html=1;exitX=1;exitY=0.5;exitDx=0;exitDy=0;" edge="1" parent="1" source="hqb7r71HThTkE5SXsh7w-11">
          <mxGeometry width="50" height="50" relative="1" as="geometry">
            <mxPoint x="150" y="390" as="sourcePoint" />
            <mxPoint x="149" y="320" as="targetPoint" />
          </mxGeometry>
        </mxCell>
        <mxCell id="hqb7r71HThTkE5SXsh7w-72" value="" style="endArrow=classic;html=1;exitX=1;exitY=0.5;exitDx=0;exitDy=0;" edge="1" parent="1" source="hqb7r71HThTkE5SXsh7w-24">
          <mxGeometry width="50" height="50" relative="1" as="geometry">
            <mxPoint x="288" y="398" as="sourcePoint" />
            <mxPoint x="436" y="320" as="targetPoint" />
          </mxGeometry>
        </mxCell>
        <mxCell id="hqb7r71HThTkE5SXsh7w-73" value="" style="endArrow=classic;html=1;exitX=1;exitY=0.5;exitDx=0;exitDy=0;" edge="1" parent="1" source="hqb7r71HThTkE5SXsh7w-23">
          <mxGeometry width="50" height="50" relative="1" as="geometry">
            <mxPoint x="446" y="410" as="sourcePoint" />
            <mxPoint x="290" y="320" as="targetPoint" />
          </mxGeometry>
        </mxCell>
        <mxCell id="hqb7r71HThTkE5SXsh7w-76" value="" style="endArrow=classic;html=1;exitX=1;exitY=0.5;exitDx=0;exitDy=0;" edge="1" parent="1" source="hqb7r71HThTkE5SXsh7w-25">
          <mxGeometry width="50" height="50" relative="1" as="geometry">
            <mxPoint x="446" y="410" as="sourcePoint" />
            <mxPoint x="564" y="320" as="targetPoint" />
          </mxGeometry>
        </mxCell>
        <mxCell id="hqb7r71HThTkE5SXsh7w-77" value="" style="endArrow=classic;html=1;exitX=1;exitY=0.5;exitDx=0;exitDy=0;" edge="1" parent="1" source="hqb7r71HThTkE5SXsh7w-54">
          <mxGeometry width="50" height="50" relative="1" as="geometry">
            <mxPoint x="693" y="400" as="sourcePoint" />
            <mxPoint x="820" y="320" as="targetPoint" />
          </mxGeometry>
        </mxCell>
        <mxCell id="hqb7r71HThTkE5SXsh7w-79" value="" style="endArrow=classic;html=1;exitX=1;exitY=0.5;exitDx=0;exitDy=0;" edge="1" parent="1" source="hqb7r71HThTkE5SXsh7w-26">
          <mxGeometry width="50" height="50" relative="1" as="geometry">
            <mxPoint x="695" y="400" as="sourcePoint" />
            <mxPoint x="695" y="320" as="targetPoint" />
          </mxGeometry>
        </mxCell>
        <mxCell id="hqb7r71HThTkE5SXsh7w-82" value="" style="endArrow=classic;html=1;exitX=1;exitY=0.5;exitDx=0;exitDy=0;" edge="1" parent="1">
          <mxGeometry width="50" height="50" relative="1" as="geometry">
            <mxPoint x="820" y="650" as="sourcePoint" />
            <mxPoint x="820" y="400" as="targetPoint" />
          </mxGeometry>
        </mxCell>
        <mxCell id="hqb7r71HThTkE5SXsh7w-86" value="" style="endArrow=classic;html=1;exitX=0.5;exitY=1;exitDx=0;exitDy=0;entryX=0.563;entryY=0.027;entryDx=0;entryDy=0;entryPerimeter=0;" edge="1" parent="1" source="hqb7r71HThTkE5SXsh7w-55" target="hqb7r71HThTkE5SXsh7w-58">
          <mxGeometry width="50" height="50" relative="1" as="geometry">
            <mxPoint x="690" y="770" as="sourcePoint" />
            <mxPoint x="740" y="720" as="targetPoint" />
          </mxGeometry>
        </mxCell>
        <mxCell id="hqb7r71HThTkE5SXsh7w-89" value="" style="endArrow=classic;html=1;exitX=0.43;exitY=1.017;exitDx=0;exitDy=0;exitPerimeter=0;entryX=0.5;entryY=0;entryDx=0;entryDy=0;" edge="1" parent="1" source="hqb7r71HThTkE5SXsh7w-3" target="hqb7r71HThTkE5SXsh7w-11">
          <mxGeometry width="50" height="50" relative="1" as="geometry">
            <mxPoint x="50" y="350" as="sourcePoint" />
            <mxPoint x="100" y="300" as="targetPoint" />
          </mxGeometry>
        </mxCell>
        <mxCell id="hqb7r71HThTkE5SXsh7w-90" value="" style="endArrow=classic;html=1;exitX=0.5;exitY=1;exitDx=0;exitDy=0;entryX=0.5;entryY=0;entryDx=0;entryDy=0;" edge="1" parent="1" source="hqb7r71HThTkE5SXsh7w-15" target="hqb7r71HThTkE5SXsh7w-23">
          <mxGeometry width="50" height="50" relative="1" as="geometry">
            <mxPoint x="180" y="360" as="sourcePoint" />
            <mxPoint x="230" y="310" as="targetPoint" />
          </mxGeometry>
        </mxCell>
        <mxCell id="hqb7r71HThTkE5SXsh7w-91" value="" style="endArrow=classic;html=1;" edge="1" parent="1" target="hqb7r71HThTkE5SXsh7w-24">
          <mxGeometry width="50" height="50" relative="1" as="geometry">
            <mxPoint x="373" y="270" as="sourcePoint" />
            <mxPoint x="245.5" y="350" as="targetPoint" />
          </mxGeometry>
        </mxCell>
        <mxCell id="hqb7r71HThTkE5SXsh7w-92" value="" style="endArrow=classic;html=1;entryX=0.5;entryY=0;entryDx=0;entryDy=0;" edge="1" parent="1" target="hqb7r71HThTkE5SXsh7w-25">
          <mxGeometry width="50" height="50" relative="1" as="geometry">
            <mxPoint x="509" y="272" as="sourcePoint" />
            <mxPoint x="540" y="280" as="targetPoint" />
          </mxGeometry>
        </mxCell>
        <mxCell id="hqb7r71HThTkE5SXsh7w-93" value="" style="endArrow=classic;html=1;exitX=0.6;exitY=1.05;exitDx=0;exitDy=0;exitPerimeter=0;" edge="1" parent="1" source="hqb7r71HThTkE5SXsh7w-18" target="hqb7r71HThTkE5SXsh7w-26">
          <mxGeometry width="50" height="50" relative="1" as="geometry">
            <mxPoint x="255" y="290" as="sourcePoint" />
            <mxPoint x="255.5" y="360" as="targetPoint" />
          </mxGeometry>
        </mxCell>
        <mxCell id="hqb7r71HThTkE5SXsh7w-94" value="" style="endArrow=classic;html=1;exitX=0.5;exitY=1;exitDx=0;exitDy=0;" edge="1" parent="1" source="hqb7r71HThTkE5SXsh7w-52" target="hqb7r71HThTkE5SXsh7w-54">
          <mxGeometry width="50" height="50" relative="1" as="geometry">
            <mxPoint x="265" y="300" as="sourcePoint" />
            <mxPoint x="265.5" y="370" as="targetPoint" />
          </mxGeometry>
        </mxCell>
        <mxCell id="hqb7r71HThTkE5SXsh7w-95" value="" style="endArrow=classic;html=1;exitX=0.5;exitY=1;exitDx=0;exitDy=0;" edge="1" parent="1" source="hqb7r71HThTkE5SXsh7w-54" target="hqb7r71HThTkE5SXsh7w-55">
          <mxGeometry width="50" height="50" relative="1" as="geometry">
            <mxPoint x="740" y="540" as="sourcePoint" />
            <mxPoint x="790" y="490" as="targetPoint" />
          </mxGeometry>
        </mxCell>
        <mxCell id="hqb7r71HThTkE5SXsh7w-96" value="TRUE" style="text;html=1;strokeColor=none;fillColor=none;align=center;verticalAlign=middle;whiteSpace=wrap;rounded=0;" vertex="1" parent="1">
          <mxGeometry x="720" y="720" width="40" height="20" as="geometry" />
        </mxCell>
        <mxCell id="hqb7r71HThTkE5SXsh7w-97" value="FALSE" style="text;html=1;strokeColor=none;fillColor=none;align=center;verticalAlign=middle;whiteSpace=wrap;rounded=0;" vertex="1" parent="1">
          <mxGeometry x="155" y="340" width="40" height="20" as="geometry" />
        </mxCell>
        <mxCell id="hqb7r71HThTkE5SXsh7w-98" value="FALSE" style="text;html=1;strokeColor=none;fillColor=none;align=center;verticalAlign=middle;whiteSpace=wrap;rounded=0;" vertex="1" parent="1">
          <mxGeometry x="445" y="340" width="40" height="20" as="geometry" />
        </mxCell>
        <mxCell id="hqb7r71HThTkE5SXsh7w-99" value="FALSE" style="text;html=1;strokeColor=none;fillColor=none;align=center;verticalAlign=middle;whiteSpace=wrap;rounded=0;" vertex="1" parent="1">
          <mxGeometry x="295" y="340" width="40" height="20" as="geometry" />
        </mxCell>
        <mxCell id="hqb7r71HThTkE5SXsh7w-100" value="FALSE" style="text;html=1;strokeColor=none;fillColor=none;align=center;verticalAlign=middle;whiteSpace=wrap;rounded=0;" vertex="1" parent="1">
          <mxGeometry x="568" y="340" width="40" height="20" as="geometry" />
        </mxCell>
        <mxCell id="hqb7r71HThTkE5SXsh7w-101" value="FALSE" style="text;html=1;strokeColor=none;fillColor=none;align=center;verticalAlign=middle;whiteSpace=wrap;rounded=0;" vertex="1" parent="1">
          <mxGeometry x="695" y="340" width="40" height="20" as="geometry" />
        </mxCell>
        <mxCell id="hqb7r71HThTkE5SXsh7w-102" value="FALSE" style="text;html=1;strokeColor=none;fillColor=none;align=center;verticalAlign=middle;whiteSpace=wrap;rounded=0;" vertex="1" parent="1">
          <mxGeometry x="827" y="340" width="40" height="20" as="geometry" />
        </mxCell>
        <mxCell id="hqb7r71HThTkE5SXsh7w-103" value="FALSE" style="text;html=1;strokeColor=none;fillColor=none;align=center;verticalAlign=middle;whiteSpace=wrap;rounded=0;" vertex="1" parent="1">
          <mxGeometry x="827" y="600" width="40" height="20" as="geometry" />
        </mxCell>
        <mxCell id="hqb7r71HThTkE5SXsh7w-104" value="TRUE" style="text;html=1;strokeColor=none;fillColor=none;align=center;verticalAlign=middle;whiteSpace=wrap;rounded=0;" vertex="1" parent="1">
          <mxGeometry x="90" y="470" width="40" height="20" as="geometry" />
        </mxCell>
        <mxCell id="hqb7r71HThTkE5SXsh7w-105" value="TRUE" style="text;html=1;strokeColor=none;fillColor=none;align=center;verticalAlign=middle;whiteSpace=wrap;rounded=0;" vertex="1" parent="1">
          <mxGeometry x="245" y="470" width="40" height="20" as="geometry" />
        </mxCell>
        <mxCell id="hqb7r71HThTkE5SXsh7w-106" value="TRUE" style="text;html=1;strokeColor=none;fillColor=none;align=center;verticalAlign=middle;whiteSpace=wrap;rounded=0;" vertex="1" parent="1">
          <mxGeometry x="385" y="470" width="40" height="20" as="geometry" />
        </mxCell>
        <mxCell id="hqb7r71HThTkE5SXsh7w-107" value="TRUE" style="text;html=1;strokeColor=none;fillColor=none;align=center;verticalAlign=middle;whiteSpace=wrap;rounded=0;" vertex="1" parent="1">
          <mxGeometry x="524" y="472" width="40" height="20" as="geometry" />
        </mxCell>
        <mxCell id="hqb7r71HThTkE5SXsh7w-108" value="" style="endArrow=classic;html=1;exitX=0.5;exitY=1;exitDx=0;exitDy=0;entryX=0.5;entryY=0;entryDx=0;entryDy=0;" edge="1" parent="1" source="hqb7r71HThTkE5SXsh7w-25" target="hqb7r71HThTkE5SXsh7w-48">
          <mxGeometry width="50" height="50" relative="1" as="geometry">
            <mxPoint x="386" y="470" as="sourcePoint" />
            <mxPoint x="386.5" y="530" as="targetPoint" />
          </mxGeometry>
        </mxCell>
        <mxCell id="hqb7r71HThTkE5SXsh7w-109" value="" style="endArrow=classic;html=1;exitX=0.5;exitY=1;exitDx=0;exitDy=0;" edge="1" parent="1" source="hqb7r71HThTkE5SXsh7w-26">
          <mxGeometry width="50" height="50" relative="1" as="geometry">
            <mxPoint x="396" y="480" as="sourcePoint" />
            <mxPoint x="640" y="520" as="targetPoint" />
          </mxGeometry>
        </mxCell>
        <mxCell id="hqb7r71HThTkE5SXsh7w-110" value="TRUE" style="text;html=1;strokeColor=none;fillColor=none;align=center;verticalAlign=middle;whiteSpace=wrap;rounded=0;" vertex="1" parent="1">
          <mxGeometry x="648" y="470" width="40" height="20" as="geometry" />
        </mxCell>
        <mxCell id="hqb7r71HThTkE5SXsh7w-113" value="" style="endArrow=classic;startArrow=classic;html=1;exitX=0.5;exitY=0;exitDx=0;exitDy=0;entryX=0.5;entryY=0;entryDx=0;entryDy=0;" edge="1" parent="1" source="hqb7r71HThTkE5SXsh7w-3" target="hqb7r71HThTkE5SXsh7w-52">
          <mxGeometry width="50" height="50" relative="1" as="geometry">
            <mxPoint x="120" y="200" as="sourcePoint" />
            <mxPoint x="770" y="180" as="targetPoint" />
            <Array as="points">
              <mxPoint x="96" y="190" />
              <mxPoint x="420" y="190" />
              <mxPoint x="680" y="190" />
              <mxPoint x="763" y="190" />
            </Array>
          </mxGeometry>
        </mxCell>
        <mxCell id="hqb7r71HThTkE5SXsh7w-115" value="" style="endArrow=classic;html=1;exitX=0.5;exitY=1;exitDx=0;exitDy=0;" edge="1" parent="1" source="hqb7r71HThTkE5SXsh7w-8">
          <mxGeometry width="50" height="50" relative="1" as="geometry">
            <mxPoint x="420" y="210" as="sourcePoint" />
            <mxPoint x="430" y="190" as="targetPoint" />
          </mxGeometry>
        </mxCell>
        <mxCell id="hqb7r71HThTkE5SXsh7w-117" value="" style="endArrow=classic;html=1;" edge="1" parent="1" target="hqb7r71HThTkE5SXsh7w-16">
          <mxGeometry width="50" height="50" relative="1" as="geometry">
            <mxPoint x="370" y="190" as="sourcePoint" />
            <mxPoint x="340.5" y="204" as="targetPoint" />
          </mxGeometry>
        </mxCell>
        <mxCell id="hqb7r71HThTkE5SXsh7w-118" value="" style="endArrow=classic;html=1;exitX=0.5;exitY=1;exitDx=0;exitDy=0;" edge="1" parent="1">
          <mxGeometry width="50" height="50" relative="1" as="geometry">
            <mxPoint x="500" y="190" as="sourcePoint" />
            <mxPoint x="500.5" y="214" as="targetPoint" />
          </mxGeometry>
        </mxCell>
        <mxCell id="hqb7r71HThTkE5SXsh7w-119" value="" style="endArrow=classic;html=1;entryX=0.5;entryY=0;entryDx=0;entryDy=0;" edge="1" parent="1" target="hqb7r71HThTkE5SXsh7w-18">
          <mxGeometry width="50" height="50" relative="1" as="geometry">
            <mxPoint x="630" y="190" as="sourcePoint" />
            <mxPoint x="610.5" y="224" as="targetPoint" />
          </mxGeometry>
        </mxCell>
        <mxCell id="hqb7r71HThTkE5SXsh7w-123" value="" style="endArrow=classic;html=1;" edge="1" parent="1">
          <mxGeometry width="50" height="50" relative="1" as="geometry">
            <mxPoint x="240" y="190" as="sourcePoint" />
            <mxPoint x="240" y="210" as="targetPoint" />
          </mxGeometry>
        </mxCell>
        <mxCell id="hqb7r71HThTkE5SXsh7w-125" value="" style="endArrow=classic;html=1;exitX=0.5;exitY=1;exitDx=0;exitDy=0;" edge="1" parent="1" source="hqb7r71HThTkE5SXsh7w-2" target="hqb7r71HThTkE5SXsh7w-8">
          <mxGeometry width="50" height="50" relative="1" as="geometry">
            <mxPoint x="350" y="100" as="sourcePoint" />
            <mxPoint x="350.5" y="124" as="targetPoint" />
          </mxGeometry>
        </mxCell>
        <mxCell id="hqb7r71HThTkE5SXsh7w-126" value="TRUE" style="text;html=1;strokeColor=none;fillColor=none;align=center;verticalAlign=middle;whiteSpace=wrap;rounded=0;" vertex="1" parent="1">
          <mxGeometry x="720" y="470" width="40" height="20" as="geometry" />
        </mxCell>
      </root>
    </mxGraphModel>
  </diagram>
</mxfile>
